PathFileType	4	(X/Y/Z)	C:/Users/opensim2020/Desktop/walking_exp_matlab/subject06_walking15_straight_04.trc	
DataRate	CameraRate	NumFrames	NumMarkers	Units	OrigDataRate	OrigDataStartFrame	OrigNumFrames	
100.00	100.00	8	47	mm	100.00	2979	157	
Frame#	Time	LFHD			RFHD			LBHD			RBHD			C7			T10			CLAV			STRN			RBAK			LSHO			LUPA			LELB			LFRM			LWRA			LWRB			LFIN			RSHO			RUPA			RELB			RFRM			RWRA			RWRB			RFIN			LASI			RASI			LPSI			RPSI			LTHI			LKNE			LTIB			LANK			LHEE			LTOE			RTHI			RKNE			RTIB			RANK			RHEE			RTOE			*39			*40			*41			*42			*43			*44			*45			*46			
		X1	Y1	Z1	X2	Y2	Z2	X3	Y3	Z3	X4	Y4	Z4	X5	Y5	Z5	X6	Y6	Z6	X7	Y7	Z7	X8	Y8	Z8	X9	Y9	Z9	X10	Y10	Z10	X11	Y11	Z11	X12	Y12	Z12	X13	Y13	Z13	X14	Y14	Z14	X15	Y15	Z15	X16	Y16	Z16	X17	Y17	Z17	X18	Y18	Z18	X19	Y19	Z19	X20	Y20	Z20	X21	Y21	Z21	X22	Y22	Z22	X23	Y23	Z23	X24	Y24	Z24	X25	Y25	Z25	X26	Y26	Z26	X27	Y27	Z27	X28	Y28	Z28	X29	Y29	Z29	X30	Y30	Z30	X31	Y31	Z31	X32	Y32	Z32	X33	Y33	Z33	X34	Y34	Z34	X35	Y35	Z35	X36	Y36	Z36	X37	Y37	Z37	X38	Y38	Z38	X39	Y39	Z39	X40	Y40	Z40	X41	Y41	Z41	X42	Y42	Z42	X43	Y43	Z43	X44	Y44	Z44	X45	Y45	Z45	X46	Y46	Z46	X47	Y47	Z47	

118	1.170	-911.89478	-234.26201	1653.80945	-1042.69641	-254.36604	1646.08582	-933.74512	-100.29229	1605.20337	-1062.06763	-122.18634	1602.67310	-984.91614	-102.28014	1447.33484	-990.40765	-63.86575	1118.07971	-979.60870	-210.59489	1367.56909	-969.93463	-245.40445	1193.54688	-1062.08838	-27.45163	1278.42334	-821.72144	-149.58678	1402.88989	-739.74225	-178.58690	1206.73755	-720.69012	-203.82271	1097.52893	-698.51862	-284.95184	970.64197	-745.89050	-381.78973	888.89502	-702.77478	-333.19940	861.38354	-702.83984	-405.24722	807.78247	-1143.66821	-171.47610	1397.53796	-1229.17725	-107.25487	1205.94312	-1240.97620	-95.63091	1084.24451	-1260.31079	-87.35555	964.40497	-1232.33862	-117.61160	814.35938	-1273.09668	-64.48771	828.75452	-1275.10938	-81.55658	745.32849	-878.60553	-240.21361	957.58008	-1099.13416	-244.71126	969.22321	-913.57184	-83.44548	984.55841	-1080.75476	-93.49783	986.36969	-836.28955	-150.82227	641.83868	-863.42010	-133.63742	478.70334	-880.46344	-50.83833	233.84639	-931.90228	-11.28366	68.91789	-978.49792	30.76397	60.29854	-928.50293	-151.70782	33.47152	-1173.26855	-263.12860	642.18475	-1152.18896	-306.86417	523.47943	-1155.11584	-269.47644	261.52850	-1117.85461	-264.44675	74.63502	-1066.62463	-234.92166	47.91763	-1143.69055	-413.32306	40.73212	-985.15924	-146.16365	1698.12073																					 
119	1.180	-912.21362	-244.28357	1652.58093	-1042.85168	-264.66074	1644.77478	-934.32501	-110.50151	1603.80042	-1062.49475	-132.57765	1601.16785	-985.28021	-112.53725	1445.95581	-990.73950	-74.08044	1116.86060	-979.73297	-220.83174	1366.24475	-969.75262	-255.50856	1192.11804	-1062.46924	-37.87407	1277.13013	-822.14307	-159.35056	1401.58142	-739.77185	-190.33493	1206.14270	-720.53259	-217.22173	1097.36389	-698.75616	-301.54135	972.57678	-746.56506	-400.54620	893.85297	-703.12781	-352.95413	864.68402	-703.79779	-426.60529	813.54620	-1143.92908	-182.10570	1396.09631	-1228.88391	-116.50628	1204.82581	-1241.05444	-104.10160	1083.29736	-1260.55652	-94.13696	963.61414	-1232.97412	-122.02366	812.94012	-1273.60193	-69.24546	828.33783	-1275.66064	-84.70414	744.52509	-878.43872	-250.34909	955.96704	-1099.06213	-255.17418	967.60571	-913.92340	-93.56083	983.41095	-1081.06775	-103.83414	985.19653	-836.75818	-158.42421	640.88422	-863.69971	-138.91965	477.97430	-880.80060	-53.04911	234.06831	-932.18298	-11.74094	69.50893	-978.85736	30.39063	61.18427	-928.61133	-151.84216	33.40537	-1173.62158	-270.88983	639.79895	-1151.68689	-314.66895	521.30200	-1156.20813	-291.45486	258.44342	-1119.34937	-297.54507	71.41371	-1069.41895	-268.17130	45.41018	-1143.98547	-447.27170	42.03534	-985.67822	-156.34608	1696.74609																					 
120	1.190	-912.44775	-254.31731	1651.36035	-1043.11987	-275.03955	1643.44470	-934.78485	-120.56252	1602.46228	-1063.12134	-143.06500	1599.75513	-985.67792	-122.68409	1444.70410	-991.19696	-84.58806	1115.46777	-979.93628	-231.07990	1364.91101	-969.67346	-265.69568	1190.72510	-1062.78735	-48.20709	1275.76355	-822.57452	-169.20798	1400.30676	-739.94031	-201.94772	1205.50793	-720.25342	-230.61511	1097.35632	-699.11993	-317.64084	974.48639	-747.41150	-418.73947	898.79175	-704.16858	-372.05450	868.11047	-704.71198	-447.55215	819.39197	-1144.23889	-192.68544	1394.59412	-1229.30042	-125.80939	1203.79333	-1241.27515	-112.66213	1082.30273	-1260.89661	-101.19524	962.77197	-1233.77014	-127.18254	811.81775	-1274.13892	-74.43395	827.84021	-1276.26343	-88.47542	743.73315	-878.36328	-260.55069	954.28528	-1099.00574	-265.64185	965.91418	-914.23871	-103.73342	982.33435	-1081.55823	-114.35389	984.04126	-837.09528	-165.73872	640.05255	-863.94409	-143.89998	477.35208	-881.06207	-55.23705	234.38849	-932.44659	-12.19548	70.18729	-979.00470	29.54005	61.87125	-928.69098	-152.03571	33.34064	-1174.14453	-278.13361	637.30786	-1151.25452	-322.49991	519.02875	-1157.23132	-313.09415	256.35471	-1121.48779	-329.17194	70.33377	-1071.68250	-299.52005	44.50631	-1143.57141	-479.37668	42.24517	-986.25928	-166.47899	1695.38208																					 
121	1.200	-912.85858	-264.29623	1650.28625	-1043.43652	-285.31631	1642.20178	-935.84766	-130.95288	1601.16309	-1063.63818	-153.52188	1598.26282	-986.22742	-132.89957	1443.47229	-991.66064	-95.01088	1114.19507	-980.22095	-241.21353	1363.65454	-969.71320	-275.93079	1189.42896	-1063.18799	-58.59318	1274.21826	-822.85614	-179.20953	1399.19836	-740.16406	-213.39946	1204.79565	-720.39203	-243.42552	1097.06104	-699.56299	-333.44247	976.35120	-748.47443	-436.08994	903.57990	-704.89423	-390.69406	871.50769	-705.92035	-467.58133	825.10175	-1144.66199	-203.13289	1393.13293	-1229.65588	-135.28735	1202.72595	-1241.56274	-121.33071	1081.29468	-1261.30884	-108.61275	961.92767	-1234.35583	-133.01801	810.56805	-1274.70459	-80.15739	827.31396	-1276.91809	-93.02607	743.02344	-878.36847	-270.89590	952.59998	-1099.13135	-276.11584	964.19189	-914.62378	-114.13985	981.26904	-1082.00781	-124.90615	983.00610	-837.27765	-173.06850	639.34302	-864.09460	-148.67744	476.92938	-881.23401	-57.38792	234.90053	-932.60773	-12.58210	71.12756	-979.32336	29.72688	63.43456	-928.77319	-152.17244	33.29041	-1174.90100	-285.17551	634.94775	-1151.63232	-330.65601	517.39716	-1158.61804	-334.14786	255.65846	-1123.39258	-357.90768	70.44753	-1073.04541	-327.99292	44.68321	-1142.14502	-509.22791	43.17684	-986.90845	-176.62242	1694.07959																					 
122	1.210	-913.33472	-274.28455	1649.29651	-1043.81274	-295.73071	1641.16699	-936.57617	-141.02928	1599.95703	-1064.34778	-163.97958	1597.05481	-986.76361	-142.99478	1442.28259	-992.08575	-105.60108	1112.88379	-980.58398	-251.40268	1362.55029	-969.84540	-286.18661	1188.24329	-1063.58020	-69.00504	1272.73828	-823.26031	-189.20844	1397.98230	-740.45734	-224.73953	1204.02209	-720.83685	-255.86420	1096.49146	-700.22937	-348.56403	978.07410	-749.38312	-453.38724	908.50848	-706.31085	-408.69464	874.89948	-707.18573	-486.98535	830.80469	-1145.12695	-213.61002	1391.77747	-1229.81519	-144.88228	1201.61719	-1242.01172	-130.23868	1080.36401	-1261.84021	-116.38036	961.09894	-1235.11938	-138.85921	809.53271	-1275.38562	-86.41015	826.79114	-1277.59338	-98.34944	742.36334	-878.49390	-281.41605	951.07599	-1099.30994	-286.73489	962.64355	-914.85883	-124.71897	980.30170	-1082.47974	-135.51021	982.06177	-837.55322	-180.46021	638.80212	-864.15759	-153.48323	476.68954	-881.33496	-59.44518	235.60033	-932.66278	-13.01606	72.22576	-979.35126	29.38226	64.92715	-928.80011	-152.21858	33.26099	-1175.84106	-292.25775	632.76978	-1151.61694	-339.73972	516.42700	-1160.07129	-354.14301	255.74255	-1124.67249	-384.38696	71.17863	-1074.18347	-356.63632	43.48885	-1141.23145	-537.79120	47.12207	-987.66229	-186.73412	1692.93433																					 
123	1.220	-913.81714	-284.37161	1648.43787	-1044.19287	-306.10056	1640.02893	-937.44525	-151.14723	1598.84656	-1065.05603	-174.41727	1595.81042	-987.30035	-153.36784	1441.17578	-992.59033	-116.21767	1111.60449	-981.01520	-261.74673	1361.52332	-970.16840	-296.76633	1187.17456	-1064.06213	-79.39266	1271.39270	-823.57684	-199.32747	1397.02429	-740.83435	-235.92224	1203.25537	-721.21564	-268.07724	1096.03625	-700.92566	-363.39233	979.68787	-750.49878	-469.82422	913.17554	-707.69141	-426.03107	878.06940	-708.64087	-505.59024	836.35834	-1145.64124	-223.95461	1390.50916	-1230.31482	-154.54825	1200.69141	-1242.48975	-139.28229	1079.43250	-1262.40088	-124.50340	960.32562	-1235.68628	-145.67921	808.43060	-1276.12244	-93.26472	826.30994	-1278.31934	-104.46693	741.71204	-878.78455	-291.98630	949.65771	-1099.59265	-297.41721	961.21948	-915.23846	-135.44203	979.47119	-1082.86230	-146.15172	981.15430	-837.77167	-187.88367	638.43939	-864.05328	-158.45918	476.58075	-881.25873	-61.40480	236.59248	-932.57300	-13.45995	73.53034	-979.24677	29.02169	66.68222	-928.79260	-152.24483	33.25059	-1177.24500	-300.14474	631.30017	-1151.46985	-348.88910	515.70624	-1161.38306	-372.47852	255.99957	-1125.76758	-410.03516	71.93765	-1075.63965	-382.83945	42.96645	-1140.58020	-565.69684	54.06836	-988.40283	-196.90106	1691.82129																					 
124	1.230	-914.39697	-294.37027	1647.23596	-1044.66614	-316.48318	1638.82251	-938.04871	-161.06636	1597.74036	-1065.76196	-184.84723	1594.57922	-987.75513	-163.72566	1439.78296	-993.09845	-127.02136	1110.31458	-981.54486	-272.12924	1360.43811	-970.60614	-307.48099	1186.18152	-1064.34729	-90.02774	1270.03540	-824.02997	-209.54518	1396.02551	-741.31464	-246.95715	1202.45593	-721.49628	-280.38434	1095.74854	-701.80957	-377.76797	981.17426	-751.74396	-485.75681	917.70068	-709.11719	-442.94107	881.22052	-710.19806	-523.55334	841.74652	-1146.18152	-234.16968	1389.28333	-1231.15161	-164.28787	1199.82837	-1243.06848	-148.58372	1078.58252	-1263.08569	-133.05714	959.57800	-1236.63318	-152.81433	807.55817	-1276.92297	-100.78751	825.79156	-1279.15625	-111.37149	741.10071	-879.24817	-302.66165	948.30884	-1099.96753	-308.37326	959.87225	-915.62366	-146.18448	978.58569	-1083.41968	-157.01634	980.16229	-838.00867	-195.33740	638.14978	-863.86047	-163.68228	476.50949	-880.94348	-63.73460	237.67195	-932.24731	-13.93582	74.96780	-978.86438	28.64670	68.56438	-928.69562	-152.36417	33.18331	-1178.23511	-309.38110	630.19775	-1152.00391	-358.04694	514.76312	-1162.03943	-388.67841	255.79454	-1126.43445	-434.73779	72.87122	-1077.04028	-409.07831	41.86250	-1139.69849	-592.05243	62.46308	-989.21490	-207.18475	1690.68115																					 
125	1.240	-914.95728	-304.36328	1646.22888	-1045.18848	-326.78955	1637.71472	-939.10120	-171.25529	1596.55579	-1066.69250	-195.21675	1593.34424	-988.40802	-174.03395	1438.59094	-993.74518	-137.82941	1109.06995	-982.16919	-282.59372	1359.35938	-971.18103	-318.29135	1185.16479	-1064.80688	-100.50828	1268.61035	-824.56537	-219.86951	1395.09558	-741.89551	-257.86292	1201.61792	-722.43488	-291.95981	1095.03455	-702.96252	-391.45071	982.51953	-753.01379	-501.23358	922.00256	-710.81445	-459.07477	884.16718	-711.94165	-540.70233	846.79663	-1146.77893	-244.36890	1388.17261	-1231.54700	-174.20589	1198.90381	-1243.70300	-157.97479	1077.75549	-1263.82935	-141.86584	958.83960	-1237.39685	-160.79854	806.62018	-1277.81543	-109.07137	825.19727	-1280.06812	-119.13197	740.42114	-879.80469	-313.37839	947.02258	-1100.43860	-319.19736	958.59344	-916.23035	-156.92842	977.66650	-1084.06934	-167.91768	979.11328	-837.48682	-203.29533	637.81781	-863.77911	-169.35226	476.42776	-880.49506	-66.28896	238.81435	-931.62476	-14.54770	76.51122	-978.06329	28.20101	70.62431	-928.62158	-152.45087	33.16034	-1179.10388	-319.73630	629.56207	-1152.15613	-366.96909	513.58630	-1162.04797	-403.30624	255.16452	-1127.46582	-458.12567	74.28871	-1078.44727	-434.45328	41.14493	-1138.74841	-616.63477	70.94473	-990.06000	-217.29005	1689.49048																					 
